<svg width="51" height="51" viewBox="0 0 51 51" fill="none" xmlns="http://www.w3.org/2000/svg">
<path d="M17.0583 40.7006C17.0583 40.9082 16.8218 41.0743 16.5236 41.0743C16.1843 41.1054 15.9478 40.9394 15.9478 40.7006C15.9478 40.493 16.1843 40.327 16.4825 40.327C16.7909 40.2958 17.0583 40.4619 17.0583 40.7006ZM13.8605 40.2336C13.7885 40.4412 13.9942 40.6799 14.3026 40.7422C14.57 40.846 14.8784 40.7422 14.9401 40.5346C15.0018 40.327 14.8065 40.0882 14.498 39.9948C14.2306 39.9222 13.9325 40.026 13.8605 40.2336ZM18.4052 40.0571C18.1071 40.1298 17.9014 40.327 17.9323 40.5657C17.9631 40.7733 18.2304 40.9082 18.5389 40.8356C18.8371 40.7629 19.0427 40.5657 19.0119 40.3581C18.981 40.1609 18.7034 40.026 18.4052 40.0571ZM25.171 0.282471C10.9095 0.282471 0 11.2122 0 25.6087C0 37.1197 7.17702 46.9699 17.4284 50.4367C18.7446 50.6754 19.2073 49.8555 19.2073 49.1808C19.2073 48.5372 19.1764 44.9874 19.1764 42.8077C19.1764 42.8077 11.9788 44.3646 10.4673 39.7146C10.4673 39.7146 9.29516 36.6941 7.60887 35.9156C7.60887 35.9156 5.25423 34.286 7.77339 34.3172C7.77339 34.3172 10.3337 34.5248 11.7423 36.9951C13.9942 41.0017 17.7677 39.8495 19.2381 39.1645C19.4746 37.5037 20.1429 36.3516 20.8833 35.6665C15.1355 35.023 9.33629 34.1823 9.33629 24.1971C9.33629 21.3427 10.1177 19.9103 11.7629 18.0835C11.4956 17.4088 10.6216 14.6271 12.0302 11.0357C14.1792 10.3611 19.125 13.8382 19.125 13.8382C21.1815 13.257 23.3921 12.956 25.5823 12.956C27.7724 12.956 29.9831 13.257 32.0395 13.8382C32.0395 13.8382 36.9853 10.3507 39.1343 11.0357C40.5429 14.6375 39.669 17.4088 39.4016 18.0835C41.0468 19.9207 42.0544 21.3531 42.0544 24.1971C42.0544 34.2134 35.9982 35.0126 30.2504 35.6665C31.1964 36.4865 31.9984 38.0435 31.9984 40.4827C31.9984 43.9806 31.9675 48.3089 31.9675 49.16C31.9675 49.8347 32.4405 50.6547 33.7464 50.416C44.0286 46.9699 51 37.1197 51 25.6087C51 11.2122 39.4325 0.282471 25.171 0.282471ZM9.99435 36.0817C9.86069 36.1855 9.89153 36.4242 10.0663 36.6215C10.2308 36.7875 10.4673 36.8602 10.601 36.7253C10.7347 36.6215 10.7038 36.3827 10.529 36.1855C10.3645 36.0194 10.128 35.9468 9.99435 36.0817ZM8.88387 35.241C8.8119 35.3759 8.91472 35.542 9.12036 35.6458C9.28488 35.7496 9.49052 35.7184 9.5625 35.5731C9.63448 35.4382 9.53165 35.2721 9.32601 35.1683C9.12036 35.106 8.95585 35.1372 8.88387 35.241ZM12.2153 38.9361C12.0508 39.071 12.1125 39.3824 12.349 39.5796C12.5855 39.8184 12.8837 39.8495 13.0173 39.6834C13.151 39.5485 13.0893 39.2371 12.8837 39.0399C12.6575 38.8012 12.349 38.77 12.2153 38.9361ZM11.0431 37.4103C10.8786 37.5141 10.8786 37.784 11.0431 38.0227C11.2077 38.2614 11.4853 38.3652 11.619 38.2614C11.7835 38.1265 11.7835 37.8566 11.619 37.6179C11.475 37.3792 11.2077 37.2754 11.0431 37.4103Z" fill="#3C19FE"/>
</svg>
