<svg width="100" height="92" viewBox="0 0 100 92" fill="none" xmlns="http://www.w3.org/2000/svg">
<path d="M82.2199 29.8191C81.1557 29.4415 80.0824 29.0917 79.0012 28.7701C79.1828 28.0026 79.35 27.2445 79.4984 26.4996C81.9352 14.2685 80.3422 4.4148 74.9012 1.1705C69.6844 -1.9397 61.1527 1.30339 52.5363 9.05747C51.6871 9.82304 50.8568 10.6107 50.0461 11.4196C49.5034 10.8817 48.9511 10.3542 48.3895 9.83745C39.359 1.54655 30.3074 -1.94778 24.8723 1.30581C19.6602 4.4257 18.1168 13.6888 20.3105 25.2806C20.5288 26.4286 20.7752 27.5708 21.0496 28.7058C19.7684 29.0823 18.532 29.483 17.3488 29.9095C6.76133 33.7266 0 39.7083 0 45.9129C0 52.3211 7.25859 58.7487 18.2859 62.6462C19.1799 62.9609 20.0814 63.2524 20.9895 63.5207C20.6945 64.7432 20.4327 65.974 20.2043 67.2117C18.1129 78.6023 19.7461 87.6465 24.9441 90.7466C30.3129 93.9481 39.3238 90.6578 48.0977 82.7268C48.8091 82.082 49.5049 81.4189 50.1844 80.7383C51.0623 81.6142 51.9637 82.4646 52.8875 83.2886C61.3867 90.8508 69.7805 93.9045 74.9734 90.7959C80.3371 87.5851 82.0805 77.8692 79.8172 66.0484C79.6389 65.1224 79.439 64.2009 79.2176 63.2848C79.8504 63.0909 80.4715 62.8914 81.077 62.6838C92.541 58.7564 100 52.4068 100 45.9129C100 39.6857 93.0203 33.6636 82.2199 29.8191V29.8191ZM79.7336 58.491C79.1867 58.6781 78.6258 58.8586 78.0539 59.0343C76.7883 54.8913 75.0805 50.4861 72.9902 45.9343C74.9848 41.4912 76.627 37.1422 77.857 33.0262C78.8801 33.3324 79.8727 33.6551 80.8297 33.9956C90.0836 37.29 95.7281 42.1601 95.7281 45.9129C95.7281 49.9101 89.632 55.0993 79.7336 58.491V58.491ZM75.6266 66.9064C76.6273 72.1331 76.7699 76.859 76.107 80.5537C75.5117 83.8735 74.3141 86.0866 72.8328 86.9732C69.6816 88.8595 62.9422 86.4077 55.6738 79.9401C54.8146 79.174 53.9761 78.3834 53.1594 77.5691C55.9773 74.3825 58.7934 70.6782 61.5418 66.5638C66.3762 66.1203 70.9434 65.3949 75.0852 64.4049C75.2891 65.2559 75.4703 66.0904 75.6266 66.9064V66.9064ZM34.0922 86.6472C31.0133 87.7713 28.5609 87.8037 27.0785 86.9199C23.9242 85.0388 22.6129 77.7767 24.4016 68.0357C24.6142 66.8847 24.8576 65.7399 25.1316 64.6028C29.2277 65.5399 33.7617 66.2136 38.6074 66.62C41.3746 70.6459 44.2719 74.3462 47.1918 77.5864C46.5713 78.2073 45.936 78.8123 45.2867 79.4009C41.4066 82.9077 37.5188 85.3959 34.0922 86.6472V86.6472ZM19.668 58.4664C14.7918 56.7429 10.7648 54.5031 8.00469 52.059C5.52422 49.8629 4.27227 47.6821 4.27227 45.9129C4.27227 42.1476 9.70078 37.3449 18.7551 34.0808C19.8539 33.685 21.0039 33.3114 22.1973 32.9608C23.4488 37.1696 25.0902 41.5704 27.0711 46.0204C25.0645 50.5362 23.3996 55.0072 22.1359 59.2658C21.3071 59.0203 20.4842 58.7537 19.668 58.4664V58.4664ZM24.5031 24.4319C22.6238 14.5007 23.8719 7.00919 27.0129 5.12893C30.3582 3.12628 37.7559 5.98161 45.5531 13.1407C46.0616 13.6086 46.5618 14.086 47.0535 14.5726C44.148 17.7987 41.2773 21.4716 38.5348 25.4737C33.8316 25.9244 29.3297 26.6483 25.1906 27.6181C24.9356 26.5623 24.7064 25.5001 24.5031 24.4324V24.4319ZM67.6387 35.4461C66.661 33.6999 65.6471 31.9757 64.5977 30.2747C67.7883 30.6919 70.8453 31.2457 73.716 31.9227C72.8543 34.7792 71.7801 37.7654 70.5156 40.8271C69.5914 39.0138 68.6322 37.2198 67.6387 35.4461V35.4461ZM50.048 17.7297C52.0184 19.9371 53.9918 22.4014 55.9328 25.0754C51.9953 24.8831 48.0512 24.8823 44.1137 25.073C46.0566 22.4237 48.0469 19.9626 50.048 17.7297ZM32.3445 35.4764C31.3634 37.2358 30.4221 39.0187 29.5215 40.8235C28.2777 37.7727 27.2133 34.7728 26.3441 31.8758C29.1973 31.2158 32.2398 30.6762 35.4102 30.2666C34.349 31.978 33.3268 33.7149 32.3445 35.476V35.4764ZM35.5012 61.8735C32.2258 61.4954 29.1375 60.9837 26.2852 60.3414C27.168 57.3928 28.2559 54.329 29.5266 51.2128C30.4308 53.019 31.376 54.8029 32.3613 56.5631C33.3746 58.3727 34.4238 60.1451 35.5012 61.8735ZM50.166 74.4072C48.141 72.1485 46.1215 69.6494 44.1492 66.9617C46.0641 67.0392 48.016 67.0788 50 67.0788C52.0383 67.0788 54.0531 67.0316 56.0363 66.9403C54.0891 69.6764 52.123 72.1792 50.166 74.4072ZM70.5559 51.0536C71.8926 54.2042 73.0191 57.2518 73.9137 60.15C71.0145 60.8342 67.884 61.3851 64.5855 61.7943C65.6425 60.0617 66.666 58.3075 67.6555 56.5328C68.6615 54.7289 69.6285 52.9021 70.5559 51.0536V51.0536ZM63.9551 54.3258C62.4403 57.0468 60.8404 59.7161 59.1578 62.3295C56.11 62.5527 53.0555 62.6636 50 62.6619C46.8879 62.6619 43.8609 62.5618 40.9461 62.3663C39.2196 59.7589 37.5892 57.0849 36.0582 54.35H36.0586C34.5348 51.6297 33.1116 48.8504 31.7918 46.0183C33.1082 43.1856 34.5272 40.405 36.0457 37.6826L36.0453 37.683C37.5633 34.9599 39.1807 32.2973 40.8941 29.7011C43.868 29.4685 46.9176 29.3473 49.9996 29.3473H50C53.0961 29.3473 56.1496 29.4697 59.1227 29.7039C60.8188 32.2962 62.4259 34.9496 63.941 37.6592C65.4646 40.3756 66.9024 43.1426 68.252 45.9557C66.9162 48.7976 65.483 51.5894 63.9551 54.3258V54.3258ZM72.7676 4.99725C76.116 6.99424 77.4184 15.0472 75.3145 25.6078C75.1801 26.2815 75.0293 26.9678 74.8652 27.6637C70.716 26.6733 66.2109 25.937 61.4941 25.4793C58.7465 21.4332 55.8992 17.7547 53.041 14.5702C53.7901 13.8236 54.557 13.0963 55.341 12.389C62.7238 5.74572 69.6238 3.12265 72.7676 4.99725V4.99725ZM50 36.6793C54.9316 36.6793 58.9297 40.8134 58.9297 45.9129C58.9297 51.0124 54.9316 55.1466 50 55.1466C45.0684 55.1466 41.0703 51.0124 41.0703 45.9129C41.0703 40.8134 45.0684 36.6793 50 36.6793V36.6793Z" fill="#00D8FF"/>
</svg>
